<svg width="13" height="12" viewBox="0 0 13 12" fill="none" xmlns="http://www.w3.org/2000/svg">
<path d="M5.94617 11.7253L9.16463 8.2956C9.37997 8.06655 9.50219 7.75082 9.50219 7.42271V1.23815C9.50219 0.557167 8.97839 0 8.33819 0H3.10602C2.64042 0 2.22138 0.297156 2.04096 0.749081L0.143645 5.46024C-0.351054 6.68601 0.492845 8.04798 1.74414 8.04798H5.03244L4.47954 10.8833C4.42134 11.1929 4.50864 11.5086 4.71816 11.7315C5.06154 12.0905 5.60862 12.0905 5.94617 11.7253ZM11.836 0C11.1958 0 10.672 0.557167 10.672 1.23815V6.19075C10.672 6.87173 11.1958 7.4289 11.836 7.4289C12.4762 7.4289 13 6.87173 13 6.19075V1.23815C13 0.557167 12.4762 0 11.836 0Z" fill="#C02828"/>
</svg>
