<svg width="20" height="20" viewBox="0 0 20 20" fill="none" xmlns="http://www.w3.org/2000/svg">
<path d="M17.7778 0H2.21111C0.988889 0 0 1 0 2.22222L0.0111111 17.7778C0.0111111 19 1 20 2.22222 20H13.3333L20 13.3333V2.22222C20 1 19 0 17.7778 0ZM5.55556 5.55556H14.4444C15.0556 5.55556 15.5556 6.05556 15.5556 6.66667C15.5556 7.27778 15.0556 7.77778 14.4444 7.77778H5.55556C4.94444 7.77778 4.44444 7.27778 4.44444 6.66667C4.44444 6.05556 4.94444 5.55556 5.55556 5.55556ZM8.88889 12.2222H5.55556C4.94444 12.2222 4.44444 11.7222 4.44444 11.1111C4.44444 10.5 4.94444 10 5.55556 10H8.88889C9.5 10 10 10.5 10 11.1111C10 11.7222 9.5 12.2222 8.88889 12.2222ZM12.2222 18.3333V13.3333C12.2222 12.7222 12.7222 12.2222 13.3333 12.2222H18.3333L12.2222 18.3333Z" fill="white"/>
</svg>
